<svg xmlns="http://www.w3.org/2000/svg" width="136.449" height="84.811" viewBox="0 0 136.449 84.811">
  <g id="Group_15" data-name="Group 15" transform="translate(-877 -154.239)">
    <path id="Path_35" data-name="Path 35" d="M106.01.239h.5q3.094,2.237,8.645,8.949l.331,1.188v.359a31.4,31.4,0,0,1-9.143,5.745q-4.005,2.6-19.639,5.939a94.95,94.95,0,0,1-9.833.829H74.329a100.825,100.825,0,0,1-16.573-2.541l-10.33-4.226q-16.407-9.64-20.163-9.64a15.933,15.933,0,0,0-3.4-.525q-6.436.994-6.436,6.436A14.791,14.791,0,0,0,19.8,19.878q10.828,10.8,10.855,12.015a18.168,18.168,0,0,1,2.182,8.452q0,8.342-8.977,14.225a15.628,15.628,0,0,1-7.1,2.044H13.2q-1.906,0-6.1-2.21A14.433,14.433,0,0,1,.691,46.45,14.839,14.839,0,0,1,0,42.555q0-5.635,5.414-11.85.331,0,1.353-1.022h.525q1.132,0,7.955,3.729a1.976,1.976,0,0,1,.5,1.188q0,.221-3.37,1.519-4.088,3.618-4.088,6.767a5.43,5.43,0,0,0,3.729,5.441,4.838,4.838,0,0,0,2.375.829h1.188a8.115,8.115,0,0,0,6.436-2.873,11.974,11.974,0,0,0,2.873-5.745l.166-.856v-.331q0-5.469-6.6-12.374-5.911-7.43-5.911-13.037V12.42q1.1-6.1,2.348-6.1a11.742,11.742,0,0,1,9.336-4.723h.5q5.138,0,18.285,5.911l8.48,3.729a54.945,54.945,0,0,0,12.871,2.873h6.077q6.132,0,16.1-2.541l8.452-3.536q6.353-3.37,7.955-5.082Q103.386,2.946,106.01.239ZM20.163,4.962h.166a.293.293,0,0,0,.331-.331h-.166Q20.163,4.686,20.163,4.962Zm-5.441,8.314a20.519,20.519,0,0,0,.691,3.2h.331v-.5a10.506,10.506,0,0,0-.331-1.353V12.752q0-3.287,3.37-7.1h-.166A8.749,8.749,0,0,0,14.722,13.276Zm86.537-4.419h.166a10.44,10.44,0,0,0,3.563-2.375h.166V6.15A22.279,22.279,0,0,0,101.259,8.857ZM36.073,7.669v.166A61.585,61.585,0,0,1,42.509,11.4h.331v-.5q-.055-.442-6.6-3.232Zm60.794,3.4v.166h.663q2.375-1.022,2.541-1.685h-.166A11.28,11.28,0,0,1,96.868,11.067ZM77.229,15.818v.166h.829q11.187-1.6,11.187-2.9,3.2-1.16,3.2-1.519h-.166a62.094,62.094,0,0,1-6.933,2.541,18.41,18.41,0,0,1-6.1,1.188Q79.245,15.541,77.229,15.818Zm25.715-2.9-.166.359h.166a1.152,1.152,0,0,1,.525-.193v-.166Zm-56.706.359q4.668,3.038,15.578,6.242,5.138.856,5.579.856h.166v-.166A111.531,111.531,0,0,1,46.238,13.276ZM15.744,16.812v.166a1.418,1.418,0,0,1,.166.691h.166v-.691ZM16.269,18v.525l.331.166v-.166A1.28,1.28,0,0,1,16.435,18ZM79.08,19.712a14.277,14.277,0,0,0-2.541-.193l-.331.193a1.152,1.152,0,0,0-.525-.193v.193a1.265,1.265,0,0,1,.166.663l-.166.331.359.166h1.685a8.763,8.763,0,0,0,2.375-.829,18.861,18.861,0,0,1,2.707-.331l-.166-.359ZM20.992,24.435V24.6a7.242,7.242,0,0,1,1.188,2.044h.331l.359-.166Q21.379,24.435,20.992,24.435Zm4.419,4.419v.166l.994,2.016h.856v-.166A8.254,8.254,0,0,0,25.412,28.855ZM9.474,35.291v.166q.856-.442.856-.691V34.6Q9.557,34.932,9.474,35.291ZM7.458,37.473v.359a4.868,4.868,0,0,0,1.353-1.713H8.48Q8.2,36.119,7.458,37.473Zm19.8,1.353v.525a10.431,10.431,0,0,1-.331,1.685l.331.166h.166l.331-1.188-.166-1.188Zm2.707.166q0,.11-.166,2.21v.331h.166a1.216,1.216,0,0,1,.331-.663V39.351Q30.3,38.992,29.969,38.992ZM5.745,44.6v1.519q0,.249.525.5h.5A3.89,3.89,0,0,1,6.1,44.6Zm19.473,4.723h.193q.635-.221,2.016-2.873v-.5Q27.152,45.98,25.218,49.322Zm-3.038-.331.331.166q.221,0,1.188-1.353v-.166A4.274,4.274,0,0,0,22.18,48.991ZM3.895,47.969v.166q.055.359.331.359v-.525Zm6.933,2.044v.166q0,.276.691.691h.5v-.193Q12.015,50.4,10.828,50.013Zm8.48,1.353V51.7q1.851-.5,1.851-1.022h-.331A4.958,4.958,0,0,1,19.307,51.366ZM10.5,52.388a4.185,4.185,0,0,0,3.4,1.685h.331v-.166A16.81,16.81,0,0,0,10.5,52.388Zm4.392,1.851q.276.691.525.691H17.1Q17.1,54.4,14.888,54.239ZM39.415,16.812h.138a16.378,16.378,0,0,1,6.933,3.536q.359,0,1.077,5.027,1.381,4.889,1.768,4.889a43.443,43.443,0,0,0,3.95-2.983q7.209-4.364,7.623-4.364a18.684,18.684,0,0,1,2.845-.939h.276q.635,0,1.492,2.845a56.239,56.239,0,0,0-4.889,3.121q-6.961,5.11-8.839,9.115a48.326,48.326,0,0,0,5.441,9.5,39.218,39.218,0,0,0,7.182,6.795,39.273,39.273,0,0,0,5.994,4.226,62.856,62.856,0,0,0,13.037,5.856,77.859,77.859,0,0,0,15.219,1.63q1.685,0,4.5-.276l.525.138a84.394,84.394,0,0,0,13.341-2.6A79.014,79.014,0,0,0,128.853,56.5h.8a60.455,60.455,0,0,1,6.795,8.563q0,1.188-3.812,2.154-3.094,1.63-13.175,3.259-2.32.138-4.751.414l-.552-.138a46.345,46.345,0,0,1-7.6.414q-1.492,0-4.5-.138a.89.89,0,0,1-.387.138q-5.911-.829-7.347-.829,0-.221-4.364-.939a6.023,6.023,0,0,0-1.878-.691,1.06,1.06,0,0,1-.414.138q0-.331-2.735-.939a73.522,73.522,0,0,1-16.3-7.209A83.733,83.733,0,0,1,57.507,52.83q-8.01-7.623-9.115-10.054h-.138Q46.487,44.792,44.443,52l-1.077,4.64-.276.11h-.276q-.47-.249-6.242-6.1-1.906-1.05-1.906-2.431l1.768-3.4q2.486-3.591,2.845-3.95l4.364-5.3v-.276q-5.027-11.518-5.027-17.4Q38.614,17.364,39.415,16.812Zm.967,1.906v.552h.138l.387-.276.552.525H41.6V19.27Q41.4,18.718,40.382,18.718Zm4.06,1.906v.525q.083.829.414.829,0-.276.552-.829A1.732,1.732,0,0,0,44.443,20.624Zm16.849,3.812h.138q.967-.331.967-.552H62.12Q61.291,24.187,61.291,24.435Zm-2.707,1.215-.138.276a1.06,1.06,0,0,1,.414-.138v-.138Zm-.691,2.293h.138a2.686,2.686,0,0,0,1.1-.8H59Q57.977,27.64,57.894,27.943Zm-1.63,1.381q.967-.47.967-.691h-.138Q56.264,29.1,56.264,29.324Zm-13.313-.276.414,1.353H43.5v-.138Q43.144,29.048,42.951,29.048Zm7.623,9.64a4.183,4.183,0,0,1,.387,2.044H51.1l.138-1.215a2.4,2.4,0,0,1-.414-.967Zm-5.165,0a2.784,2.784,0,0,1-.552.829v.249h.276q.193,0,.552-.663v-.138A.244.244,0,0,0,45.409,38.688ZM41.6,40.18a.96.96,0,0,1-.276.552H41.6a.96.96,0,0,1,.276-.552Zm2.182,4.889.249.138q1.63-3.121,2.6-4.613v-.138A33.883,33.883,0,0,0,43.78,45.068Zm5.414-4.475v.276a16.742,16.742,0,0,0,2.182,3.4v-.276a14.994,14.994,0,0,1-2.044-3.4Zm-9.087,1.492v.276q.193,0,.939-1.077v-.138Q40.244,42.085,40.106,42.085ZM39,50.51q0,.193.414.414a16.166,16.166,0,0,0,1.492-3.4L42.4,44.82v-.138Q39,49.35,39,50.51Zm-2.293-2.983a1.469,1.469,0,0,1-.276.691q.028.331.939.939V48.6q-.525,0-.525-1.077ZM60.49,53.355v.138a2.916,2.916,0,0,1,1.353.691h.138q-.028-.276-1.215-.829Zm58.7,10.33q0,.276.414.276l5.441-1.768v-.138a1.007,1.007,0,0,1-.552-.249A20.922,20.922,0,0,1,119.186,63.685Zm.967,1.519v.11h.138a31.83,31.83,0,0,0,4.475-1.215v-.138h-.138Q120.4,65.2,120.152,65.2Zm4.475.525v.138h.414q5.3-1.132,5.3-1.768v-.138A21.766,21.766,0,0,1,124.627,65.729ZM83.858,64.79v.138l.552.138h.138v-.138L84,64.79Zm4.226.939v.138h.8v-.138Zm35.742.138-.138.276.8-.138v-.138ZM90.653,67.5v.276q8.424,1.492,9.115,1.492h.387v-.138Q96.315,68.6,90.653,67.5Zm12.651.829v.138q.3,0,2.569.249,1.353-.083,1.353-.387H106.7q-.414,0-.414.138l-.691-.138Zm12.209.8v.138h.967v-.138Zm-15.081.138V69.4h.552v-.138ZM80.019,23.552q3.48,0,4.668,2.127,0,.856-3.121,6.187-.856,1.685-1.547,1.685A20.919,20.919,0,0,0,75.793,33q-1.243,0-4.5,2.1a10.719,10.719,0,0,0-2.955,5.8,6.6,6.6,0,0,0,1.132,3.094q1.933,2.4,3.646,2.4h1.409q2.32,0,5.635-4.088a8.688,8.688,0,0,0,.718-2.127h.138q2.265,2.79,2.265,4.64a7.357,7.357,0,0,1-.994,1.574q-3.563,3.618-6.491,4.364l-1.685.276h-.414q-5.856,0-9.723-5.635a10.835,10.835,0,0,1-.856-4.226q0-8.949,9.17-15.357A17.092,17.092,0,0,1,80.019,23.552ZM75.1,26.369v.276h.138q.276,0,4.64-.829,1.243.138,1.547.138l.856-.138v-.3l-1.409-.138h-.718A25.322,25.322,0,0,0,75.1,26.369Zm-2.817,3.812v.414a23.1,23.1,0,0,1,5.193-1.685v-.138l-.138-.718h-.276Q75.848,28.054,72.285,30.181Zm-1.713-.718a1.338,1.338,0,0,1-.414.718v.138H70.3q.193,0,.718-.718v-.138Zm-1.685,3.674-.414.691v.166q.193,0,.691-.718ZM67.755,44.986a6.373,6.373,0,0,0,3.4,3.094h.138q-3.011-2.237-3.232-3.094ZM78.2,47.5l.276.166A6.567,6.567,0,0,1,79.6,46.532h-.138A2.907,2.907,0,0,0,78.2,47.5Zm-2.127,1.132h.442v-.276h-.138Q76.069,48.411,76.069,48.632Z" transform="translate(877 154)" fill="#fff"/>
    <path id="Path_36" data-name="Path 36" d="M25.388,14.814H24.333V8.741q0-.72.088-1.761H24.4a5.632,5.632,0,0,1-.271.878l-3.094,6.957h-.518L17.427,7.907a5.411,5.411,0,0,1-.271-.928H17.13q.051.543.051,1.774v6.061H16.158V5.761h1.4l2.778,6.313a8.084,8.084,0,0,1,.417,1.086h.038q.271-.745.436-1.111l2.835-6.288h1.326Zm24.866,0h-4.8V5.761h4.6v.96H46.517V9.732h3.27v.953h-3.27v3.169h3.738Zm25.921,0H74.912L73.4,12.276a5.527,5.527,0,0,0-.4-.6,2.3,2.3,0,0,0-.4-.407,1.389,1.389,0,0,0-.442-.23,1.817,1.817,0,0,0-.533-.073h-.871v3.851H69.685V5.761h2.7a3.851,3.851,0,0,1,1.1.148,2.451,2.451,0,0,1,.871.451,2.1,2.1,0,0,1,.578.754,2.5,2.5,0,0,1,.208,1.057A2.547,2.547,0,0,1,75,9.041a2.267,2.267,0,0,1-.4.7,2.449,2.449,0,0,1-.631.527,3.223,3.223,0,0,1-.83.338v.025a1.909,1.909,0,0,1,.395.23,2.172,2.172,0,0,1,.319.306,4.056,4.056,0,0,1,.3.4q.148.224.331.521Zm-5.43-8.094V10h1.439a2.183,2.183,0,0,0,.736-.12,1.7,1.7,0,0,0,.584-.344,1.56,1.56,0,0,0,.385-.549,1.839,1.839,0,0,0,.139-.729,1.419,1.419,0,0,0-.47-1.133A2.021,2.021,0,0,0,72.2,6.721Zm30.34,7.715a5.31,5.31,0,0,1-2.5.53,4.032,4.032,0,0,1-3.094-1.244,4.589,4.589,0,0,1-1.162-3.264,4.81,4.81,0,0,1,1.307-3.51,4.436,4.436,0,0,1,3.315-1.338,5.314,5.314,0,0,1,2.134.372v1.13a4.327,4.327,0,0,0-2.147-.543,3.294,3.294,0,0,0-2.529,1.042,3.924,3.924,0,0,0-.969,2.784,3.734,3.734,0,0,0,.906,2.636,3.083,3.083,0,0,0,2.377.982,4.459,4.459,0,0,0,2.361-.606Zm26.337.379h-1.061V10.685h-4.685v4.129h-1.061V5.761h1.061V9.732h4.685V5.761h1.061Z" transform="translate(870.667 224.084)" fill="#fff"/>
  </g>
</svg>
