<svg xmlns="http://www.w3.org/2000/svg" width="168.848" height="104.948" viewBox="0 0 168.848 104.948">
  <g id="Group_14" data-name="Group 14" transform="translate(-877 -154.239)">
    <path id="Path_35" data-name="Path 35" d="M131.182.239h.615q3.828,2.769,10.7,11.074l.41,1.47v.444a38.85,38.85,0,0,1-11.313,7.109q-4.956,3.213-24.3,7.349a117.5,117.5,0,0,1-12.168,1.025H91.978A124.765,124.765,0,0,1,71.47,25.566L58.687,20.337Q38.384,8.408,33.735,8.408a19.716,19.716,0,0,0-4.2-.649q-7.964,1.23-7.964,7.964a18.3,18.3,0,0,0,2.939,8.818q13.4,13.364,13.433,14.868a22.482,22.482,0,0,1,2.7,10.459q0,10.322-11.108,17.6A19.339,19.339,0,0,1,20.747,70H16.338q-2.358,0-7.554-2.734a17.86,17.86,0,0,1-7.93-9.844A18.362,18.362,0,0,1,0,52.6Q0,45.63,6.7,37.939q.41,0,1.675-1.265h.649q1.4,0,9.844,4.614a2.446,2.446,0,0,1,.615,1.47q0,.273-4.17,1.88-5.059,4.478-5.059,8.374a6.719,6.719,0,0,0,4.614,6.733,5.987,5.987,0,0,0,2.939,1.025h1.47a10.042,10.042,0,0,0,7.964-3.555A14.817,14.817,0,0,0,30.8,50.107L31,49.048v-.41q0-6.768-8.169-15.312-7.314-9.194-7.314-16.133v-1.88q1.367-7.554,2.905-7.554,4.819-5.845,11.553-5.845h.615q6.357,0,22.627,7.314l10.493,4.614A67.992,67.992,0,0,0,79.639,17.4h7.52q7.588,0,19.927-3.145l10.459-4.375q7.861-4.17,9.844-6.289Q127.935,3.589,131.182.239ZM24.951,6.084h.205a.363.363,0,0,0,.41-.41h-.205Q24.951,5.742,24.951,6.084ZM18.218,16.372a25.391,25.391,0,0,0,.854,3.965h.41v-.615a13,13,0,0,0-.41-1.675V15.723q0-4.067,4.17-8.784h-.205A10.827,10.827,0,0,0,18.218,16.372ZM125.3,10.9h.205q1.333-.273,4.409-2.939h.205v-.41Q125.405,10.527,125.3,10.9ZM44.639,9.434v.205q.444,0,7.964,4.409h.41v-.615q-.068-.547-8.169-4Zm75.229,4.2v.205h.82q2.939-1.265,3.145-2.085h-.205Q120.483,13.638,119.868,13.638Zm-24.3,5.879v.205h1.025q13.843-1.982,13.843-3.589,3.965-1.436,3.965-1.88h-.205a76.837,76.837,0,0,1-8.579,3.145q-2.153,1.06-7.554,1.47Q98.062,19.175,95.566,19.517Zm31.821-3.589-.205.444h.205a1.425,1.425,0,0,1,.649-.239v-.205Zm-70.171.444q5.776,3.76,19.277,7.725,6.357,1.06,6.9,1.06H83.6v-.205A138.013,138.013,0,0,1,57.217,16.372ZM19.482,20.747v.205a1.755,1.755,0,0,1,.205.854h.205v-.854Zm.649,1.47v.649l.41.205v-.205a1.585,1.585,0,0,1-.205-.649Zm77.725,2.119a17.667,17.667,0,0,0-3.145-.239l-.41.239a1.425,1.425,0,0,0-.649-.239v.239a1.566,1.566,0,0,1,.205.82l-.205.41.444.205h2.085a10.844,10.844,0,0,0,2.939-1.025,23.339,23.339,0,0,1,3.35-.41l-.205-.444Zm-71.88,5.845v.205a8.961,8.961,0,0,1,1.47,2.529h.41l.444-.205Q26.455,30.181,25.977,30.181Zm5.469,5.469v.205l1.23,2.5h1.06v-.205A10.214,10.214,0,0,0,31.445,35.649ZM11.724,43.613v.205q1.06-.547,1.06-.854v-.205Q11.826,43.169,11.724,43.613Zm-2.5,2.7v.444A6.024,6.024,0,0,0,10.9,44.639h-.41Q10.151,44.639,9.229,46.313Zm24.507,1.675v.649a12.908,12.908,0,0,1-.41,2.085l.41.205h.205l.41-1.47-.205-1.47Zm3.35.205q0,.137-.205,2.734v.41h.205a1.5,1.5,0,0,1,.41-.82v-1.88Q37.5,48.193,37.085,48.193ZM7.109,55.132v1.88q0,.308.649.615h.615a4.813,4.813,0,0,1-.82-2.5Zm24.1,5.845h.239q.786-.273,2.5-3.555v-.615Q33.6,56.841,31.206,60.977Zm-3.76-.41.41.205q.273,0,1.47-1.675v-.205A5.289,5.289,0,0,0,27.446,60.566ZM4.819,59.3v.205q.068.444.41.444V59.3ZM13.4,61.831v.205q0,.342.854.854h.615v-.239Q14.868,62.31,13.4,61.831Zm10.493,1.675v.41q2.29-.615,2.29-1.265h-.41A6.135,6.135,0,0,1,23.892,63.506Zm-10.9,1.265a5.179,5.179,0,0,0,4.2,2.085h.41V66.65A20.8,20.8,0,0,0,12.988,64.771Zm5.435,2.29q.342.854.649.854h2.085Q21.157,67.266,18.423,67.061ZM48.774,20.747h.171q5.742,1.641,8.579,4.375.444,0,1.333,6.221,1.709,6.05,2.188,6.05A53.759,53.759,0,0,0,65.933,33.7q8.921-5.4,9.434-5.4a23.12,23.12,0,0,1,3.521-1.162h.342q.786,0,1.846,3.521a69.6,69.6,0,0,0-6.05,3.862Q66.411,40.845,64.087,45.8A59.8,59.8,0,0,0,70.82,57.559a48.53,48.53,0,0,0,8.887,8.408A48.6,48.6,0,0,0,87.124,71.2a77.781,77.781,0,0,0,16.133,7.246,96.346,96.346,0,0,0,18.833,2.017q2.085,0,5.571-.342l.649.171a104.432,104.432,0,0,0,16.509-3.213,97.776,97.776,0,0,0,14.629-7.212h.991a74.811,74.811,0,0,1,8.408,10.6q0,1.47-4.717,2.666-3.828,2.017-16.3,4.033-2.871.171-5.879.513l-.684-.171a57.35,57.35,0,0,1-9.4.513q-1.846,0-5.571-.171a1.1,1.1,0,0,1-.479.171q-7.314-1.025-9.092-1.025,0-.273-5.4-1.162A7.454,7.454,0,0,0,109,84.971a1.312,1.312,0,0,1-.513.171q0-.41-3.384-1.162a90.98,90.98,0,0,1-20.166-8.921,103.615,103.615,0,0,1-13.774-9.741Q61.25,55.884,59.883,52.876h-.171Q57.524,55.371,55,64.292l-1.333,5.742-.342.137h-.342q-.581-.308-7.725-7.554-2.358-1.3-2.358-3.008l2.188-4.2q3.076-4.443,3.521-4.888L54,43.955v-.342Q47.783,29.36,47.783,22.08,47.783,21.431,48.774,20.747Zm1.2,2.358v.684h.171l.479-.342.684.649h.171v-.308Q51.235,23.105,49.971,23.105ZM55,25.464v.649q.1,1.025.513,1.025,0-.342.684-1.025A2.144,2.144,0,0,0,55,25.464Zm20.85,4.717h.171q1.2-.41,1.2-.684H76.87Q75.845,29.873,75.845,30.181Zm-3.35,1.5-.171.342a1.312,1.312,0,0,1,.513-.171v-.171Zm-.854,2.837h.171a3.324,3.324,0,0,0,1.367-.991h-.171Q71.743,34.146,71.641,34.521ZM69.624,36.23q1.2-.581,1.2-.854h-.171Q69.624,35.957,69.624,36.23Zm-16.475-.342.513,1.675h.171v-.171Q53.389,35.889,53.149,35.889Zm9.434,11.929a5.177,5.177,0,0,1,.479,2.529h.171l.171-1.5a2.973,2.973,0,0,1-.513-1.2Zm-6.392,0a3.445,3.445,0,0,1-.684,1.025v.308h.342q.239,0,.684-.82v-.171A.3.3,0,0,0,56.191,47.817Zm-4.717,1.846a1.188,1.188,0,0,1-.342.684h.342a1.188,1.188,0,0,1,.342-.684Zm2.7,6.05.308.171Q56.5,52.021,57.7,50.176V50A41.929,41.929,0,0,0,54.175,55.713Zm6.7-5.537v.342a20.718,20.718,0,0,0,2.7,4.2V54.38a18.554,18.554,0,0,1-2.529-4.2ZM49.629,52.021v.342q.239,0,1.162-1.333v-.171Q49.8,52.021,49.629,52.021ZM48.262,62.446q0,.239.513.513a20,20,0,0,0,1.846-4.2l1.846-3.35v-.171Q48.262,61.011,48.262,62.446Zm-2.837-3.691a1.817,1.817,0,0,1-.342.854q.034.41,1.162,1.162v-.684q-.649,0-.649-1.333Zm29.429,7.212v.171a3.609,3.609,0,0,1,1.675.854H76.7q-.034-.342-1.5-1.025ZM147.485,78.75q0,.342.513.342l6.733-2.187v-.171a1.247,1.247,0,0,1-.684-.308Q148.853,78.716,147.485,78.75Zm1.2,1.88v.137h.171a39.389,39.389,0,0,0,5.537-1.5v-.171h-.171Q148.989,80.63,148.682,80.63Zm5.537.649v.171h.513q6.563-1.4,6.563-2.187v-.171A26.934,26.934,0,0,1,154.219,81.279ZM103.77,80.117v.171l.684.171h.171v-.171l-.684-.171ZM109,81.279v.171h.991v-.171Zm44.229.171-.171.342.991-.171V81.45Zm-41.05,2.017v.342q10.425,1.846,11.279,1.846h.479v-.171Q119.185,84.834,112.178,83.467Zm15.654,1.025v.171q.376,0,3.179.308,1.675-.1,1.675-.479h-.649q-.513,0-.513.171l-.854-.171Zm15.107.991v.171h1.2v-.171Zm-18.662.171v.171h.684v-.171ZM99.019,29.087q4.307,0,5.776,2.632,0,1.06-3.862,7.656-1.06,2.085-1.914,2.085a25.886,25.886,0,0,0-5.229-.684q-1.538,0-5.571,2.6a13.264,13.264,0,0,0-3.657,7.178,8.162,8.162,0,0,0,1.4,3.828q2.393,2.974,4.512,2.974h1.743q2.871,0,6.973-5.059a10.751,10.751,0,0,0,.889-2.632h.171q2.8,3.452,2.8,5.742a9.1,9.1,0,0,1-1.23,1.948q-4.409,4.478-8.032,5.4L91.7,63.1h-.513q-7.246,0-12.031-6.973a13.408,13.408,0,0,1-1.06-5.229q0-11.074,11.348-19A21.15,21.15,0,0,1,99.019,29.087Zm-6.084,3.486v.342h.171q.342,0,5.742-1.025,1.538.171,1.914.171l1.06-.171v-.376l-1.743-.171h-.889A31.334,31.334,0,0,0,92.935,32.573ZM89.448,37.29V37.8a28.587,28.587,0,0,1,6.426-2.085v-.171l-.171-.889h-.342Q93.857,34.658,89.448,37.29ZM87.329,36.4a1.656,1.656,0,0,1-.513.889v.171h.171q.239,0,.889-.889V36.4Zm-2.085,4.546-.513.854v.205q.239,0,.854-.889Zm-1.4,14.663a7.886,7.886,0,0,0,4.2,3.828h.171q-3.726-2.769-4-3.828Zm12.92,3.11.342.205a8.126,8.126,0,0,1,1.4-1.4h-.171A3.6,3.6,0,0,0,96.763,58.721Zm-2.632,1.4h.547V59.78h-.171Q94.131,59.849,94.131,60.122Z" transform="translate(877 154)" fill="#495057"/>
    <path id="Path_36" data-name="Path 36" d="M27.579,17h-1.3V9.484q0-.891.109-2.18h-.031a6.968,6.968,0,0,1-.336,1.086L22.189,17h-.641l-3.82-8.547A6.7,6.7,0,0,1,17.392,7.3h-.031q.062.672.063,2.2V17H16.158V5.8h1.734l3.438,7.813a10,10,0,0,1,.516,1.344h.047q.336-.922.539-1.375L25.939,5.8h1.641ZM58.35,17H52.413V5.8H58.1V6.984H53.725v3.727h4.047v1.18H53.725v3.922H58.35Zm32.076,0H88.863l-1.875-3.141a6.84,6.84,0,0,0-.5-.746,2.85,2.85,0,0,0-.5-.5,1.718,1.718,0,0,0-.547-.285,2.249,2.249,0,0,0-.66-.09H83.707V17H82.395V5.8h3.344a4.765,4.765,0,0,1,1.355.184,3.033,3.033,0,0,1,1.078.559,2.6,2.6,0,0,1,.715.934,3.1,3.1,0,0,1,.258,1.309,3.151,3.151,0,0,1-.176,1.074,2.805,2.805,0,0,1-.5.871,3.031,3.031,0,0,1-.781.652,3.988,3.988,0,0,1-1.027.418v.031a2.363,2.363,0,0,1,.488.285,2.687,2.687,0,0,1,.395.379,5.019,5.019,0,0,1,.371.5q.184.277.41.645ZM83.707,6.984v4.063h1.781a2.7,2.7,0,0,0,.91-.148,2.107,2.107,0,0,0,.723-.426,1.931,1.931,0,0,0,.477-.68,2.275,2.275,0,0,0,.172-.9,1.756,1.756,0,0,0-.582-1.4,2.5,2.5,0,0,0-1.684-.5Zm37.544,9.547a6.571,6.571,0,0,1-3.094.656,4.989,4.989,0,0,1-3.828-1.539,5.679,5.679,0,0,1-1.437-4.039,5.952,5.952,0,0,1,1.617-4.344,5.489,5.489,0,0,1,4.1-1.656,6.576,6.576,0,0,1,2.641.461v1.4A5.355,5.355,0,0,0,118.6,6.8a4.076,4.076,0,0,0-3.129,1.289,4.856,4.856,0,0,0-1.2,3.445,4.621,4.621,0,0,0,1.121,3.262,3.815,3.815,0,0,0,2.941,1.215,5.518,5.518,0,0,0,2.922-.75ZM153.842,17H152.53V11.891h-5.8V17h-1.312V5.8h1.313v4.914h5.8V5.8h1.313Z" transform="translate(873 242)" fill="#495057"/>
  </g>
</svg>
